<?xml version="1.0" standalone="no"?>
<!DOCTYPE svg PUBLIC "-//W3C//DTD SVG 20010904//EN"
 "http://www.w3.org/TR/2001/REC-SVG-20010904/DTD/svg10.dtd">
<svg version="1.0" xmlns="http://www.w3.org/2000/svg"
 width="619.000000pt" height="619.000000pt" viewBox="0 0 619.000000 619.000000"
 preserveAspectRatio="xMidYMid meet">
<metadata>
Created by potrace 1.11, written by Peter Selinger 2001-2013
</metadata>
<g transform="translate(0.000000,619.000000) scale(0.100000,-0.100000)"
fill="#000000" stroke="none">
<path d="M3595 5437 l1 -242 238 -2 c139 -1 242 -6 245 -12 5 -7 6 -617 2
-652 -1 -4 -149 -7 -331 -7 l-330 0 -1 57 c0 31 0 97 0 148 1 79 -1 92 -16 97
-10 3 -80 5 -155 5 l-138 -1 0 -154 0 -153 151 -3 151 -3 0 -320 c0 -176 -1
-324 -1 -330 -1 -6 -117 -10 -328 -10 l-328 0 -3 333 c-2 255 -5 332 -15 333
-6 0 -155 1 -329 1 -175 0 -320 4 -323 8 -3 5 -6 126 -6 270 l-1 260 -269 0
-269 0 2 -267 3 -268 265 -3 266 -2 -1 -667 0 -667 -332 0 -333 0 0 -1002 c0
-793 -3 -1003 -12 -1006 -7 -2 -158 -4 -336 -3 l-322 1 2 -335 3 -335 330 0
330 0 3 336 2 335 1048 0 c922 0 1152 3 1228 17 25 4 80 14 123 21 61 10 243
64 321 94 478 185 856 530 1086 991 54 108 132 314 148 391 3 13 7 34 10 47
10 38 13 55 21 102 4 25 9 54 11 65 15 79 19 326 19 1244 l0 1043 -670 2 -670
1 1 243 0 242 -246 0 -245 0 0 -243z m1155 -932 c0 -8 0 -107 0 -220 0 -113 0
-256 0 -318 l0 -113 -330 0 -330 0 0 333 0 333 330 0 c287 0 330 -2 330 -15z"/>
<path d="M1420 3852 c-6 -2 -10 -69 -10 -173 l0 -169 172 2 172 3 0 163 c1 95
-3 166 -9 170 -10 6 -307 10 -325 4z"/>
</g>
</svg>
