<?xml version="1.0" encoding="utf-8"?>
<!-- Generator: Adobe Illustrator 24.1.2, SVG Export Plug-In . SVG Version: 6.00 Build 0)  -->
<svg version="1.1" id="Layer_1" xmlns="http://www.w3.org/2000/svg" xmlns:xlink="http://www.w3.org/1999/xlink" x="0px" y="0px"
	 viewBox="0 0 241.09 39.2" style="enable-background:new 0 0 241.09 39.2;" xml:space="preserve">
<style type="text/css">
	.st0{fill:url(#SVGID_1_);}
	.st1{fill:#FFFFFF;}
	.st2{fill:#00438B;}
	.st3{fill:#9E9E9F;}
</style>
<g>
	<g>
		<radialGradient id="SVGID_1_" cx="19.6003" cy="19.6003" r="23.1413" fx="26.6889" fy="5.4064" gradientUnits="userSpaceOnUse">
			<stop  offset="0.1053" style="stop-color:#FFFFFF"/>
			<stop  offset="0.3699" style="stop-color:#9BC8E7"/>
			<stop  offset="0.3993" style="stop-color:#8FC2E4"/>
			<stop  offset="0.7244" style="stop-color:#0058A2"/>
			<stop  offset="1" style="stop-color:#012766"/>
		</radialGradient>
		<circle class="st0" cx="19.6" cy="19.6" r="19.6"/>
		<path class="st1" d="M26.95,7.06c1.37-0.32,3.18-0.63,5.25-0.71c0,0-2.09-0.8-5.94-0.08C22.3,2.02,17.1,0.35,17.1,0.35
			c4.71,3.09,7.04,6.42,7.04,6.42s-0.3,0.09-0.82,0.27c0,0,0,0,0,0l0,0c-2.31,0.81-8.98,3.46-13.37,8.39
			c-5.38,6.04-3.59,12.93-3.59,12.93c2.55,8.31,11.23,6.61,11.23,6.61c15.61-3.27,12.93-19.92,12.93-19.92
			C30.09,11.78,28.69,9.14,26.95,7.06z M27.06,19.8c-1.39,4.55-7.92,9.25-12.48,7.28c-5.08-2.2-3.06-7.85-3.06-7.85
			c2.9-8.81,13.43-11.58,13.43-11.58C27.18,10.24,28.45,15.25,27.06,19.8z"/>
	</g>
	<g>
		<g>
			<path class="st2" d="M68.92,5.35h-13c-4.32,0-7.83,3.5-7.83,7.83v11.04c0,4.32,3.5,7.83,7.83,7.83h13c4.32,0,7.83-3.5,7.83-7.83
				V13.18C76.75,8.85,73.25,5.35,68.92,5.35z M70.33,24.61c0,2.31-1.87,4.18-4.18,4.18H58.7c-2.31,0-4.18-1.87-4.18-4.18V12.79
				c0-2.31,1.87-4.18,4.18-4.18h7.45c2.31,0,4.18,1.87,4.18,4.18V24.61z"/>
			<path class="st2" d="M98.53,16.39h-0.89l-0.04-0.02h-8.94c-2.04,0-3.7-1.55-3.7-3.47v-0.78c0-1.92,1.66-3.47,3.7-3.47h18.7v-3.3
				H86.78c-4.32,0-7.83,3.29-7.83,7.34v0c0,4.05,3.5,7.34,7.83,7.34h4.25h4.63c2.04,0,3.7,1.92,3.7,3.97v0.83
				c0,2.04-1.66,3.7-3.7,3.7h-16.7v3.52h19.58c4.32,0,7.83-3.5,7.83-7.83C106.36,19.9,102.85,16.39,98.53,16.39z"/>
			<path class="st2" d="M117.06,8.65h18.7v-3.3h-20.58c-4.32,0-7.83,3.29-7.83,7.34v0c0,4.05,3.5,7.34,7.83,7.34h4.25h4.63
				c2.04,0,3.7,1.92,3.7,3.97v0.83c0,2.04-1.66,3.7-3.7,3.7h-16.7v3.52h19.58c4.32,0,7.83-3.5,7.83-7.83c0-4.32-3.5-7.83-7.83-7.83
				h-0.89L126,16.37h-8.94c-2.04,0-3.7-1.55-3.7-3.47v-0.78C113.36,10.2,115.01,8.65,117.06,8.65z"/>
		</g>
		<g>
			<path class="st3" d="M189.26,19.18v5.04c0,4.32,3.5,7.83,7.83,7.83h15.04v-3.26h-12.26c-2.31,0-4.18-1.87-4.18-4.18v-5.82
				c0-2.31,1.87-4.18,4.18-4.18h12.26v-3.26h-15.04C192.77,11.35,189.26,14.85,189.26,19.18z"/>
			<polygon class="st3" points="165.85,5.35 155.41,5.35 148.19,5.35 137.75,5.35 137.75,8.71 148.19,8.71 148.19,32.05 
				155.41,32.05 155.41,8.71 165.85,8.71 			"/>
			<path class="st3" d="M179.5,11.35h-10.26c-4.29,0-7.76,3.48-7.76,7.76v5.17c0,4.29,3.48,7.76,7.76,7.76h18.66v-3.26h-15.66
				c-2.02,0-3.73-1.29-4.35-3.1l20.04-6.92C187.92,15.11,185.77,11.35,179.5,11.35z M181.09,17.47l-13.46,4.83v-2.59
				c0-2.54,2.06-4.61,4.61-4.61h6.86C181.28,15.11,181.09,17.47,181.09,17.47z"/>
			<path class="st3" d="M233.26,11.35H221.5v-6h-6.42v26.7h6.42V15.13h9.28c2.31,0,4.18,1.87,4.18,4.18v12.74h6.13V19.18
				C241.09,14.85,237.59,11.35,233.26,11.35z"/>
		</g>
	</g>
</g>
</svg>
