<?xml version="1.0" encoding="UTF-8"?><svg id="_レイヤー_2" xmlns="http://www.w3.org/2000/svg" xmlns:xlink="http://www.w3.org/1999/xlink" viewBox="0 0 322 109.28"><defs><style>.cls-1{fill:none;}.cls-2{fill:url(#New_Gradient_Swatch_copy);}.cls-3{fill:#fff;}.cls-4{fill:#c3e6f9;}.cls-5{fill:#243676;}.cls-6{fill:#1a7cb1;}.cls-7{fill:#183275;}</style><linearGradient id="New_Gradient_Swatch_copy" x1="276.23" y1="46.16" x2="300.25" y2="73.23" gradientUnits="userSpaceOnUse"><stop offset=".11" stop-color="#d08bb9"/><stop offset=".32" stop-color="#b1d79e"/><stop offset=".6" stop-color="#33a6e0"/><stop offset=".81" stop-color="#8572b2"/></linearGradient></defs><g id="_レイヤー_1-2"><rect class="cls-1" width="322" height="109.28"/><path class="cls-5" d="m99.43,44.32v38.25h-8.4v-38.25h8.4Z"/><path class="cls-5" d="m124.64,44.32c2.46,0,4.75.39,6.88,1.18,2.12.79,3.96,1.96,5.51,3.54s2.76,3.53,3.64,5.89c.87,2.36,1.31,5.13,1.31,8.3,0,2.79-.36,5.36-1.07,7.71-.71,2.36-1.79,4.39-3.24,6.11-1.44,1.71-3.25,3.06-5.41,4.04-2.16.98-4.7,1.47-7.63,1.47h-16.49v-38.25h16.49Zm-.59,31.17c1.21,0,2.39-.2,3.53-.59,1.14-.39,2.16-1.04,3.05-1.96.89-.91,1.61-2.1,2.14-3.56.54-1.46.8-3.25.8-5.36,0-1.93-.19-3.67-.56-5.22-.38-1.55-.99-2.88-1.85-3.99s-1.99-1.96-3.4-2.54c-1.41-.59-3.15-.88-5.22-.88h-6v24.1h7.49Z"/><path class="cls-6" d="m11,44.32h6.69v22.28c0,1.29.06,2.59.19,3.91.12,1.32.48,2.51,1.07,3.56.59,1.05,1.48,1.92,2.68,2.6s2.88,1.02,5.06,1.02,3.86-.34,5.06-1.02c1.19-.68,2.09-1.54,2.68-2.6.59-1.05.94-2.24,1.07-3.56.12-1.32.19-2.62.19-3.91v-22.28h6.69v24.48c0,2.46-.37,4.61-1.12,6.43-.75,1.82-1.81,3.35-3.18,4.58-1.37,1.23-3.02,2.15-4.95,2.76-1.93.61-4.07.91-6.42.91s-4.5-.3-6.42-.91c-1.93-.61-3.58-1.53-4.95-2.76-1.37-1.23-2.44-2.76-3.19-4.58-.75-1.82-1.12-3.96-1.12-6.43v-24.48Z"/><path class="cls-6" d="m77.21,56.48c-.29-1.11-.68-2.12-1.18-3.05-.5-.93-1.14-1.73-1.93-2.41-.79-.68-1.7-1.21-2.76-1.58-1.05-.37-2.27-.56-3.67-.56-2.03,0-3.79.41-5.27,1.23-1.48.82-2.69,1.92-3.61,3.29-.93,1.38-1.62,2.94-2.06,4.69-.45,1.75-.67,3.54-.67,5.36s.22,3.61.67,5.36c.45,1.75,1.13,3.31,2.06,4.69.93,1.38,2.13,2.47,3.61,3.29,1.48.82,3.24,1.23,5.27,1.23,1.5,0,2.82-.26,3.96-.78,1.14-.52,2.12-1.23,2.94-2.14.82-.91,1.46-1.97,1.93-3.19.46-1.21.77-2.52.91-3.91h6.53c-.14,2.29-.63,4.38-1.47,6.27-.84,1.89-1.97,3.53-3.4,4.9-1.43,1.38-3.1,2.44-5.03,3.19-1.93.75-4.05,1.13-6.37,1.13-2.86,0-5.42-.53-7.68-1.58-2.27-1.05-4.18-2.49-5.75-4.31-1.57-1.82-2.78-3.95-3.61-6.37-.84-2.43-1.26-5.02-1.26-7.77s.42-5.28,1.26-7.71c.84-2.43,2.04-4.55,3.61-6.37,1.57-1.82,3.49-3.27,5.75-4.34,2.27-1.07,4.83-1.61,7.68-1.61,2.14,0,4.16.29,6.05.88,1.89.59,3.56,1.45,5,2.57,1.45,1.13,2.61,2.49,3.51,4.1.89,1.61,1.45,3.45,1.66,5.52h-6.69Z"/><path class="cls-6" d="m149.42,44.32h9.42l10.55,29.94h.11l10.28-29.94h9.31v38.25h-6.37v-29.51h-.11l-10.6,29.51h-5.51l-10.6-29.51h-.11v29.51h-6.37v-38.25Z"/><path class="cls-5" d="m18.88,99.73c-.65.61-1.58.91-2.78.91s-2.19-.29-2.88-.87c-.69-.58-1.03-1.51-1.03-2.79v-6.09h1.27v6.09c0,.85.23,1.5.68,1.94s1.11.66,1.96.66c.81,0,1.43-.22,1.85-.66.42-.44.63-1.09.63-1.94v-6.09h1.27v6.09c0,1.22-.32,2.14-.97,2.75Z"/><path class="cls-5" d="m23.57,93.52v1.1h.03c.47-.84,1.22-1.26,2.24-1.26.45,0,.83.06,1.13.19.3.12.55.3.73.52.19.22.32.49.39.79.08.31.11.65.11,1.02v4.54h-1.13v-4.68c0-.43-.12-.77-.37-1.02-.25-.25-.59-.37-1.03-.37-.35,0-.65.05-.9.16-.25.11-.47.26-.63.45-.17.2-.3.43-.38.69-.08.26-.13.55-.13.86v3.9h-1.13v-6.91h1.07Z"/><path class="cls-5" d="m30.79,92.28v-1.39h1.13v1.39h-1.13Zm1.13,1.24v6.91h-1.13v-6.91h1.13Z"/><path class="cls-5" d="m38.61,94.72c-.29-.24-.67-.36-1.15-.36-.41,0-.75.07-1.03.23-.28.15-.5.35-.66.6s-.28.54-.35.86c-.07.33-.11.66-.11,1.01,0,.32.04.63.11.93.08.3.19.57.35.81.16.23.37.43.63.57.26.14.57.21.92.21.56,0,1-.15,1.31-.44s.51-.71.58-1.24h1.16c-.13.85-.44,1.52-.95,1.98s-1.21.69-2.09.69c-.53,0-.99-.08-1.39-.25s-.74-.41-1.01-.72-.48-.68-.61-1.12c-.14-.43-.21-.91-.21-1.42s.07-1,.2-1.45c.13-.45.34-.84.61-1.18.27-.33.61-.6,1.02-.79.41-.19.89-.29,1.43-.29.39,0,.76.05,1.1.14s.65.24.91.43.48.44.65.74c.17.3.28.65.32,1.06h-1.17c-.09-.44-.28-.77-.56-1.02Z"/><path class="cls-5" d="m42.29,95.56c.14-.44.36-.82.64-1.15.28-.33.64-.58,1.05-.77.42-.19.9-.28,1.44-.28s1.03.09,1.45.28.76.44,1.05.77c.28.33.5.71.64,1.15s.21.91.21,1.42-.07.98-.21,1.42c-.14.44-.36.82-.64,1.14-.29.33-.63.58-1.05.76s-.9.27-1.45.27-1.02-.09-1.44-.27c-.42-.18-.77-.44-1.05-.76-.29-.33-.5-.71-.64-1.14-.14-.44-.21-.91-.21-1.42s.07-.98.21-1.42Zm1.15,2.54c.11.33.26.6.46.81.2.22.42.39.69.5.26.11.54.17.83.17s.57-.06.83-.17c.26-.12.49-.28.69-.5.2-.22.35-.49.46-.81s.17-.7.17-1.12-.06-.79-.17-1.12c-.11-.32-.26-.6-.46-.82-.2-.22-.42-.39-.69-.51-.26-.11-.54-.17-.83-.17s-.57.06-.83.17c-.26.12-.49.28-.69.51s-.35.5-.46.82c-.11.33-.17.7-.17,1.12s.06.79.17,1.12Z"/><path class="cls-5" d="m51.94,93.52v1.46h.03c.28-.56.61-.97,1.01-1.24.4-.27.91-.39,1.52-.37v1.2c-.45,0-.84.06-1.16.19-.32.13-.58.31-.77.55-.2.24-.34.53-.43.88-.09.34-.13.74-.13,1.18v3.07h-1.13v-6.91h1.07Z"/><path class="cls-5" d="m57.47,93.52v1.1h.03c.47-.84,1.22-1.26,2.24-1.26.45,0,.83.06,1.13.19.3.12.55.3.73.52.19.22.32.49.39.79.08.31.11.65.11,1.02v4.54h-1.13v-4.68c0-.43-.12-.77-.37-1.02-.25-.25-.59-.37-1.03-.37-.35,0-.65.05-.9.16-.25.11-.47.26-.63.45-.17.2-.3.43-.38.69-.08.26-.13.55-.13.86v3.9h-1.13v-6.91h1.07Z"/><path class="cls-5" d="m75.08,92.24c-.49-.34-1.06-.51-1.73-.51-.57,0-1.06.11-1.46.32-.4.22-.74.5-1,.86-.26.36-.46.77-.58,1.24-.12.46-.19.95-.19,1.44,0,.54.06,1.06.19,1.54.13.49.32.91.58,1.27.26.36.6.65,1.01.86.41.22.9.32,1.47.32.42,0,.79-.07,1.11-.21.32-.14.6-.33.84-.57.24-.24.42-.54.55-.88.13-.34.21-.7.24-1.09h1.27c-.13,1.2-.54,2.14-1.24,2.81s-1.66,1-2.88,1c-.74,0-1.38-.13-1.94-.38-.55-.25-1.01-.6-1.37-1.05-.37-.45-.64-.97-.82-1.58s-.27-1.26-.27-1.95.1-1.35.29-1.96c.2-.61.48-1.14.86-1.6s.85-.81,1.42-1.07,1.21-.4,1.94-.4c.5,0,.97.07,1.42.2s.84.33,1.19.59.64.58.87.97.38.84.45,1.34h-1.27c-.14-.68-.46-1.19-.94-1.52Z"/><path class="cls-5" d="m80.77,90.89v9.54h-1.13v-9.54h1.13Z"/><path class="cls-5" d="m83.18,95.56c.14-.44.36-.82.64-1.15.28-.33.64-.58,1.05-.77.42-.19.9-.28,1.44-.28s1.03.09,1.45.28.76.44,1.05.77c.28.33.5.71.64,1.15s.21.91.21,1.42-.07.98-.21,1.42c-.14.44-.36.82-.64,1.14-.29.33-.63.58-1.05.76s-.9.27-1.45.27-1.02-.09-1.44-.27c-.42-.18-.77-.44-1.05-.76-.29-.33-.5-.71-.64-1.14-.14-.44-.21-.91-.21-1.42s.07-.98.21-1.42Zm1.15,2.54c.11.33.26.6.46.81.2.22.42.39.69.5.26.11.54.17.83.17s.57-.06.83-.17c.26-.12.49-.28.69-.5.2-.22.35-.49.46-.81s.17-.7.17-1.12-.06-.79-.17-1.12c-.11-.32-.26-.6-.46-.82-.2-.22-.42-.39-.69-.51-.26-.11-.54-.17-.83-.17s-.57.06-.83.17c-.26.12-.49.28-.69.51s-.35.5-.46.82c-.11.33-.17.7-.17,1.12s.06.79.17,1.12Z"/><path class="cls-5" d="m96.44,100.43v-1.1h-.03c-.24.43-.55.74-.92.94-.37.2-.81.3-1.32.3-.45,0-.83-.06-1.13-.18s-.55-.29-.73-.51c-.19-.22-.32-.49-.39-.79-.08-.31-.11-.65-.11-1.02v-4.54h1.13v4.68c0,.43.13.77.37,1.02.25.25.59.37,1.03.37.35,0,.65-.05.9-.16.25-.11.47-.26.63-.45.17-.2.3-.43.38-.69.08-.26.13-.55.13-.86v-3.9h1.13v6.91h-1.07Z"/><path class="cls-5" d="m105.05,100.43v-.94h-.03c-.19.38-.48.66-.88.83-.4.17-.84.25-1.32.25-.53,0-1-.1-1.39-.29-.4-.19-.73-.46-.99-.79-.26-.33-.46-.71-.59-1.15-.13-.44-.2-.9-.2-1.39s.06-.95.19-1.39.32-.82.59-1.14.59-.58.99-.78c.4-.19.86-.29,1.38-.29.18,0,.37.02.57.06.2.03.41.1.61.18.2.08.4.2.58.33.18.14.34.31.46.51h.03v-3.55h1.13v9.54h-1.13Zm-4.08-2.45c.08.31.21.58.39.82s.4.43.67.57c.27.14.59.21.95.21s.71-.07.97-.23c.27-.15.49-.35.65-.59.17-.24.29-.52.37-.84.08-.31.11-.63.11-.95,0-.34-.04-.67-.12-.98s-.21-.59-.38-.84c-.17-.24-.4-.43-.67-.58-.28-.15-.61-.22-1-.22s-.71.07-.97.23c-.27.15-.48.35-.64.6s-.28.53-.35.85c-.07.32-.11.65-.11.99,0,.32.04.63.13.94Z"/><path class="cls-5" d="m114.76,90.89v9.54h-1.27v-9.54h1.27Z"/><path class="cls-5" d="m120.96,90.89c1.47,0,2.6.37,3.39,1.12.79.75,1.19,1.89,1.19,3.42,0,.8-.09,1.51-.27,2.13-.18.62-.45,1.14-.83,1.56-.37.42-.85.74-1.43.97-.58.22-1.26.34-2.06.34h-3.27v-9.54h3.27Zm.11,8.47c.14,0,.32,0,.53-.03.21-.02.44-.07.68-.16.24-.08.48-.21.71-.37s.45-.38.63-.65c.19-.28.34-.62.46-1.04s.18-.91.18-1.5-.06-1.08-.17-1.53c-.11-.45-.29-.83-.55-1.15-.25-.32-.58-.56-.98-.72-.4-.17-.89-.25-1.48-.25h-2.14v7.4h2.11Z"/><path class="cls-5" d="m134.17,90.89l3,8.02,3.02-8.02h1.74v9.54h-1.2v-7.93h-.03l-2.98,7.93h-1.08l-2.98-7.93h-.03v7.93h-1.2v-9.54h1.74Z"/><path class="cls-5" d="m150.76,100.4c-.2.11-.47.17-.81.17-.29,0-.53-.08-.7-.25s-.26-.43-.26-.81c-.31.38-.67.64-1.09.81s-.86.25-1.34.25c-.31,0-.61-.04-.89-.11-.28-.07-.52-.18-.73-.33s-.37-.35-.49-.59c-.12-.25-.18-.54-.18-.89,0-.39.07-.71.2-.96.13-.25.31-.45.53-.61.22-.16.47-.27.75-.35.28-.08.57-.15.86-.2.31-.06.61-.11.89-.14s.53-.08.74-.13c.21-.06.38-.14.51-.25.12-.11.19-.27.19-.49,0-.25-.05-.45-.14-.6-.09-.15-.21-.27-.36-.35-.15-.08-.31-.13-.5-.16-.18-.03-.36-.04-.54-.04-.48,0-.88.09-1.2.27s-.49.53-.52,1.03h-1.13c.02-.43.11-.79.27-1.08.16-.29.37-.53.64-.72s.57-.31.92-.4c.34-.08.71-.12,1.1-.12.31,0,.62.02.93.07.31.05.58.14.83.27.25.14.45.33.6.58.15.25.23.57.23.97v3.55c0,.27.01.46.05.59s.14.19.31.19c.1,0,.21-.02.35-.06v.88Zm-1.84-3.54c-.14.11-.33.18-.56.23-.23.05-.47.09-.73.12s-.51.07-.77.11c-.26.04-.49.1-.69.19-.21.09-.37.22-.5.38-.13.17-.19.39-.19.67,0,.18.04.34.11.47.08.13.17.23.29.31.12.08.26.14.42.17.16.03.33.05.51.05.37,0,.69-.05.96-.15.27-.1.49-.23.66-.39.17-.16.29-.32.37-.51.08-.18.12-.35.12-.51v-1.16Z"/><path class="cls-5" d="m153.68,93.52v1.1h.03c.47-.84,1.22-1.26,2.24-1.26.45,0,.83.06,1.13.19s.55.3.73.52.32.49.39.79.11.65.11,1.02v4.54h-1.13v-4.68c0-.43-.13-.77-.37-1.02s-.59-.37-1.03-.37c-.35,0-.65.05-.9.16-.25.11-.47.26-.63.45-.17.2-.3.43-.38.69-.08.26-.13.55-.13.86v3.9h-1.14v-6.91h1.07Z"/><path class="cls-5" d="m166.95,100.4c-.2.11-.47.17-.81.17-.29,0-.53-.08-.7-.25-.17-.17-.26-.43-.26-.81-.31.38-.67.64-1.09.81s-.86.25-1.34.25c-.31,0-.61-.04-.89-.11-.28-.07-.52-.18-.73-.33-.21-.15-.37-.35-.49-.59-.12-.25-.18-.54-.18-.89,0-.39.07-.71.2-.96.13-.25.31-.45.53-.61s.47-.27.75-.35c.28-.08.57-.15.86-.2.31-.06.61-.11.89-.14.28-.03.53-.08.74-.13.21-.06.38-.14.51-.25.12-.11.19-.27.19-.49,0-.25-.05-.45-.14-.6-.09-.15-.21-.27-.36-.35-.15-.08-.31-.13-.49-.16-.18-.03-.36-.04-.54-.04-.48,0-.88.09-1.2.27-.32.18-.49.53-.52,1.03h-1.13c.02-.43.11-.79.27-1.08.16-.29.37-.53.64-.72s.57-.31.91-.4c.34-.08.71-.12,1.1-.12.31,0,.62.02.93.07.31.05.58.14.83.27.25.14.45.33.6.58.15.25.23.57.23.97v3.55c0,.27.01.46.05.59.03.12.14.19.31.19.1,0,.21-.02.35-.06v.88Zm-1.84-3.54c-.14.11-.33.18-.56.23-.23.05-.47.09-.73.12s-.51.07-.77.11c-.26.04-.49.1-.69.19s-.37.22-.5.38c-.13.17-.19.39-.19.67,0,.18.04.34.11.47s.17.23.29.31c.12.08.26.14.42.17.16.03.33.05.51.05.37,0,.69-.05.96-.15.27-.1.49-.23.65-.39s.29-.32.37-.51.12-.35.12-.51v-1.16Z"/><path class="cls-5" d="m173.98,102.38c-.52.56-1.33.84-2.43.84-.32,0-.65-.04-.98-.11s-.64-.19-.91-.35-.5-.37-.67-.63-.28-.57-.29-.95h1.13c0,.2.07.38.19.52.12.14.27.26.44.35.17.09.36.16.57.19.2.04.4.06.59.06.37,0,.69-.06.95-.19.26-.13.47-.31.64-.54.17-.23.29-.5.37-.82.08-.32.11-.67.11-1.06v-.45h-.03c-.2.43-.49.74-.89.94s-.82.3-1.26.3c-.52,0-.97-.09-1.35-.28-.38-.19-.7-.44-.96-.75s-.45-.68-.58-1.11c-.13-.42-.19-.87-.19-1.34,0-.41.05-.83.16-1.26.11-.43.28-.82.53-1.18s.58-.64.99-.87c.41-.23.91-.34,1.51-.34.44,0,.84.1,1.2.29s.65.48.85.86h.01v-.99h1.07v6.32c0,1.13-.26,1.98-.77,2.54Zm-1.45-3.11c.26-.16.47-.36.63-.62s.28-.54.35-.86.11-.64.11-.96c0-.3-.04-.6-.11-.9-.07-.29-.18-.56-.34-.79-.16-.23-.36-.43-.61-.57-.25-.14-.55-.21-.91-.21s-.68.07-.93.21c-.26.14-.47.32-.63.56-.17.23-.28.5-.36.8-.08.3-.11.62-.11.95,0,.31.03.62.09.93s.17.59.32.85c.15.25.35.46.6.62s.56.23.93.23.69-.08.95-.23Z"/><path class="cls-5" d="m182.15,99.99c-.52.39-1.17.59-1.95.59-.55,0-1.03-.09-1.43-.27-.41-.18-.75-.43-1.02-.75-.28-.32-.48-.7-.62-1.15s-.22-.93-.23-1.46c0-.52.08-1.01.24-1.44.16-.44.38-.82.67-1.14s.63-.57,1.03-.75c.4-.18.83-.27,1.3-.27.61,0,1.12.13,1.53.38.4.25.73.58.97.97.24.39.41.82.51,1.28.09.46.13.9.11,1.32h-5.17c0,.3.03.59.11.86.08.27.21.51.39.72s.4.38.68.5.6.19.97.19c.48,0,.87-.11,1.18-.33.31-.22.51-.56.61-1.02h1.12c-.15.77-.48,1.36-1,1.75Zm-.27-4.44c-.1-.24-.24-.45-.41-.62-.17-.17-.38-.31-.61-.41s-.5-.15-.78-.15-.56.05-.79.15c-.24.1-.44.24-.61.42-.17.18-.3.39-.4.62-.1.24-.16.49-.17.75h3.96c-.02-.27-.08-.52-.18-.76Z"/><path class="cls-5" d="m186.26,93.52v1.46h.03c.28-.56.61-.97,1.01-1.24.4-.27.91-.39,1.52-.37v1.2c-.45,0-.84.06-1.16.19-.32.13-.58.31-.77.55-.2.24-.34.53-.43.88-.09.34-.13.74-.13,1.18v3.07h-1.13v-6.91h1.07Z"/><path class="cls-4" d="m252.77,101.09h-38.77c-4.79,0-8.69-3.9-8.69-8.69s3.9-8.69,8.69-8.69c.32,0,.64.02.96.06v-.04c0-5.46,4.44-9.91,9.9-9.91,1.37,0,2.73.29,3.99.86,2.09-4.54,6.6-7.49,11.64-7.49,7.1,0,12.88,5.78,12.88,12.89,0,.27,0,.53-.03.81,5.31.3,9.53,4.71,9.53,10.1s-4.53,10.11-10.11,10.11Zm-38.77-14.92c-3.43,0-6.22,2.79-6.22,6.23s2.79,6.23,6.22,6.23h38.77c4.21,0,7.64-3.43,7.64-7.65s-3.43-7.65-7.64-7.65c-.13,0-.26.02-.38.04-.11.02-.22.03-.33.04l-1.63.16.29-1.61c.13-.72.19-1.32.19-1.89,0-5.75-4.67-10.42-10.42-10.42-4.46,0-8.41,2.88-9.84,7.15l-.5,1.5-1.33-.85c-1.2-.77-2.58-1.17-3.97-1.17-4.1,0-7.43,3.34-7.43,7.44,0,.44.05.9.14,1.4l.39,2.07-2-.67c-.71-.24-1.35-.35-1.96-.35Z"/><path class="cls-4" d="m294.16,36.09h-21.09c-2.48,0-4.49-2.03-4.49-4.51,0-2.09,1.41-3.85,3.35-4.35-.02-.18-.03-.37-.03-.55,0-2.86,2.32-5.19,5.17-5.19.65,0,1.29.13,1.9.38.97-1.09,2.37-1.73,3.85-1.73,2.52,0,4.62,1.82,5.08,4.22.47-.14.96-.22,1.45-.22,2.36,0,4.38,1.61,4.97,3.85,2.15.08,3.88,1.87,3.88,4.05s-1.81,4.05-4.03,4.05Zm-17.1-12.98c-1.95,0-3.54,1.6-3.54,3.57,0,.3.05.61.16.99l.29.99-1.03.05c-1.53.07-2.73,1.33-2.73,2.87s1.29,2.89,2.87,2.89h21.09c1.33,0,2.41-1.09,2.41-2.43s-1.08-2.43-2.41-2.43c-.13,0-.25.02-.38.04l-.84.14-.09-.85c-.2-1.81-1.7-3.18-3.5-3.18-.62,0-1.22.17-1.78.5l-1.31.78.08-1.52c0-.06.01-.11.02-.17,0-1.99-1.58-3.59-3.54-3.59-1.18,0-2.28.59-2.94,1.57l-.42.63-.66-.37c-.56-.32-1.14-.48-1.74-.48Z"/><path class="cls-3" d="m310.31,71.28s0,0,0,0c-.01-.21-.19-.37-.4-.37-.02,0-.01,0-.11,0-.14,0-.46,0-.92-.04-6.19-1.99-9.2-7.35-12.39-13-2.19-3.9-4.46-7.93-7.87-10.7-7.81-6.36-17.09-2.3-18.71-1.51-3.19-3.43-8.53-4.59-11.83-4.94-.02,0-2.45-.21-2.47-.21-3.56-1.26-4.34-1.38-5.07-2.44-1.07.14-2.13-1.97-2.13-1.97,1.84,0,7.12-.2,7.15-.21.18-.04.31-.19.32-.38s-.11-.35-.29-.4c-1.8-.53-3.14-2.3-4.79-6.33-1.23-3.02-2.57-4.61-4.31-5.15,0-.31-.04-.62-.09-.93-.52-2.8-2.97-4.33-3.75-4.75.04-.48.05-.97,0-1.49,0-.06-.16-5.53-4.85-7.45,1.36-1.23,1.79-2.4,1.83-2.52.05-.15,0-.32-.12-.43-.12-.1-.29-.13-.44-.06-2.37,1.13-4.36.33-6.66-.6-1.6-.65-3.26-1.32-5.18-1.36-.05,0-.1,0-.15,0-3.67,0-6.16,2.54-7.09,3.66l-.73.68c-1.9-2.37-4.31-2.91-4.45-2.94-.21-.03-.41.08-.47.28-1.43,4.98,1.18,7.82,1.85,8.45v1.16c-.1-.17-.18-.28-.19-.29-.05-.06-.11-.11-.19-.14l-19.64-7.25c-.19-.07-.41.01-.5.19-.09.18-.03.4.14.52l17.79,11.78-.11.44s0,0,0,.01c-.14.39-.3.79-.42,1.14-.49,1.38-.88,2.47-1.41,3.01-1.65,1.66-2.32,2.93-2.1,3.99.17.82.82,1.45,2.02,1.94.82.34,1.55.47,2.21.47,2.02,0,3.29-1.28,3.86-1.86.39-.39,1.8-1.71,3.66-2.26.45-.13.97-.35,1.5-.64,0,.01.02.03.03.05,0,.01,0,.03,0,.04.02.03.93,1.96,1.07,4.4,0,.13.02.25.02.39.03,1.52-.25,3.2-1.24,4.74-1.24,1.94-1.67,3.83-1.75,5.45h-.49l-11.77.41c-.08.02-1.99.38-2.5,1.75-.3.82-.02,1.78.8,2.84-.43.26-.8.6-1,1.05-.37.83-.12,1.84.77,3l8.61,9.91c.04.05,1.1,1.35,2.97,1.48.1,0,.19,0,.29,0,1.51,0,3.07-.77,4.66-2.29.15-.14.17-.37.04-.54l-3.61-4.6c-.13-.16-.35-.2-.52-.09l-2.12,1.3-4.28-5.32,11.99.75c4.77,4.4,15.32,4.19,15.78,4.18.15,0,13.64-.25,16.72,7.83.1.28,2.22,6.02,11.57,10.19.02.03.03.07.06.1,2.91,2.09,2.11,14.15,1.54,18.75-.54.91-1.25,4.67-.66,7.93.02.11.08.2.17.26.07.04.14.07.22.07.03,0,.06,0,.09,0,.24-.05,5.99-1.35,6.81-5.27.02-.1,0-.2-.05-.29l-1.3-2.16c-.36-2.44-.28-5.46-.18-8.64.08-2.79.15-5.64-.1-8.12,3.43,2.96,3.55,14.98,3.26,19.9-.47.98-1.07,5.32-.05,9.07.03.1.1.19.19.24.06.03.13.05.19.05.04,0,.08,0,.12-.02.28-.09,6.88-2.16,7.47-6.67.01-.1-.01-.21-.08-.29l-1.73-2.33c-1.26-5.28-1.74-13.33-2.01-19.77-.15-3.66-1.37-4.28-3.2-5.22-.92-.47-2.06-1.06-3.36-2.21-3-2.65-2.45-9.05-2.45-9.08.04-.24.81-4.71-1.05-9.37,3.79,1.03,4.18,3.23,4.71,6.21.16.92.35,1.92.64,2.97,0,.02,0,.04,0,.05,0,0,0,.02.01.03.6,2.13,1.69,4.47,4.14,6.84,5.22,5.05,14.91,5.99,21.39,5.99,3.61,0,6.23-.29,6.51-.33.19-.02.34-.18.35-.38,0-.17-.11-.32-.26-.38Z"/><path class="cls-2" d="m310.31,71.28s0,0,0,0c-.01-.21-.19-.37-.4-.37-.02,0-.01,0-.11,0-.14,0-.46,0-.92-.04-6.19-1.99-9.2-7.35-12.39-13-2.19-3.9-4.46-7.93-7.87-10.7-7.81-6.36-17.09-2.3-18.71-1.51,0,0,2.09,2,2.89,4.59,3.79,1.03,4.18,3.23,4.71,6.21.16.92.35,1.92.64,2.97,0,.02,0,.04,0,.05,0,0,0,.02.01.03.6,2.13,1.69,4.47,4.14,6.84,5.22,5.05,14.91,5.99,21.39,5.99,3.61,0,6.23-.29,6.51-.33.19-.02.34-.18.35-.38,0-.17-.11-.32-.26-.38Z"/><path class="cls-7" d="m218.67,62.36c-.11,0-.21,0-.32-.01-2.06-.14-3.23-1.58-3.27-1.64l-8.6-9.89c-1-1.31-1.27-2.46-.83-3.45.79-1.77,3.53-2.05,3.84-2.08l11.46-.23c-.49-1.8-1-5.48,1.43-9.26,2.56-3.99.15-9.07.12-9.12-.2-.41-.03-.9.38-1.1.41-.2.9-.03,1.1.38.12.24,2.85,5.95-.21,10.73-2.83,4.41-1,8.65-.92,8.83.11.25.09.54-.06.78-.15.23-.4.38-.68.38l-12.53.25c-.62.06-2.12.41-2.43,1.11-.22.49.21,1.22.6,1.74l8.59,9.88c.05.06.82.97,2.15,1.05,1.06.06,2.23-.42,3.45-1.45l-2.68-3.42-1.8,1.1c-.35.22-.81.14-1.07-.19l-5.07-6.3c-.2-.25-.24-.6-.09-.89s.45-.47.78-.44l14.59.91s5.18,0,6.74-3.33c.19-.41.68-.59,1.09-.4.41.19.59.68.39,1.09-2.01,4.28-8.03,4.29-8.28,4.28l-12.77-.79,3.45,4.29,1.81-1.11c.35-.22.82-.13,1.07.19l3.61,4.6c.26.33.23.81-.08,1.1-1.67,1.6-3.33,2.41-4.95,2.41Z"/><path class="cls-7" d="m279.1,105.64c-.14,0-.27-.03-.4-.1-.19-.11-.34-.29-.4-.5-.98-3.58-.57-7.93.04-9.29.42-7.25-.29-18.95-3.98-19.99-14.37-4.05-17.32-12.13-17.44-12.47-3.47-7.7-14.23-7.49-14.34-7.47-.5.04-13.32,1.06-18.23-4.53-.3-.34-.27-.86.07-1.16.34-.3.86-.27,1.16.07,4.37,4.97,16.77,3.98,16.9,3.97.53-.01,12-.27,15.96,8.51.05.14,2.88,7.7,16.36,11.5,6.21,1.75,5.29,19.79,5.17,21.84,0,.16-.07.31-.16.44-.23.44-.8,3.9-.12,7.27,1.63-.65,5.14-2.34,5.73-5.04l-1.57-2.11c-.07-.09-.11-.19-.14-.3-1.3-5.35-1.77-13.15-2.06-20.09-.12-2.94-.83-3.31-2.54-4.19-.98-.5-2.19-1.13-3.61-2.38-3.46-3.06-2.88-9.86-2.85-10.15,0-.03,0-.07.01-.1.02-.07,1.54-7.52-3.38-13.49-3.92-4.76-12.59-4.27-12.68-4.26-.09,0-.17,0-.26-.02-.18-.05-4.51-1.19-9.64-5.17-.36-.28-.42-.79-.15-1.15.28-.36.79-.42,1.15-.15,4.4,3.41,8.23,4.64,8.93,4.85,1.25-.05,9.71-.23,13.91,4.87,5.25,6.38,3.89,14.03,3.73,14.82-.04.55-.41,6.33,2.31,8.72,1.26,1.11,2.33,1.66,3.28,2.15,2.09,1.07,3.27,1.86,3.43,5.58.28,6.78.74,14.4,1.97,19.61l1.68,2.26c.13.17.18.39.16.6-.62,4.77-7.47,6.92-7.76,7.01-.08.02-.16.04-.24.04Z"/><path class="cls-7" d="m213.79,31.59c-.7,0-1.49-.14-2.35-.5-1.31-.54-2.08-1.3-2.27-2.25-.25-1.23.43-2.58,2.21-4.37.47-.47.86-1.58,1.31-2.86.2-.58.43-1.2.68-1.86.17-.42.64-.63,1.06-.46.42.17.63.64.46,1.07-.25.64-.47,1.25-.66,1.81-.54,1.53-.97,2.73-1.7,3.47-1.62,1.63-1.85,2.47-1.77,2.89.1.48.75.84,1.28,1.05,2.58,1.06,4.03-.4,4.72-1.1.46-.46,2.06-1.96,4.2-2.59.05-.01,4.85-1.48,3.91-5.85-.1-.44.19-.88.63-.98.44-.1.88.19.98.63,1.01,4.68-2.86,7.13-5.05,7.77-1.77.52-3.11,1.78-3.48,2.15-.56.56-1.96,1.98-4.18,1.98Z"/><path class="cls-7" d="m213.91,20.52c-.13,0-.25-.04-.36-.11l-17.85-11.82c-.28-.18-.37-.55-.22-.85.15-.3.5-.43.81-.32l19.64,7.25c.12.05.23.13.31.23.04.06.98,1.38.56,2.92-.3,1.1-1.18,1.98-2.62,2.63-.09.04-.18.06-.27.06Zm-12.76-9.89l12.81,8.48c.87-.45,1.39-.99,1.56-1.61.19-.7-.1-1.37-.27-1.67l-14.11-5.21Z"/><circle class="cls-7" cx="219.79" cy="19.17" r="1.18"/><polygon class="cls-7" points="213.64 19.9 212.81 14.37 213.35 14.29 214.18 19.82 213.64 19.9"/><rect class="cls-7" x="209.47" y="13.16" width=".55" height="4.65" transform="translate(-.16 28.57) rotate(-7.79)"/><rect class="cls-7" x="205.88" y="11.5" width=".55" height="3.69" transform="translate(.09 28.07) rotate(-7.79)"/><path class="cls-7" d="m238.25,40.53c-.25,0-.48-.11-.64-.31-.19-.25-4.74-6.12-2.95-13.62.1-.44.55-.72.99-.61.44.1.71.55.61.99-1.04,4.35.35,8.16,1.48,10.32.44-1.85,1.53-4.51,4.15-7.2,2.59-2.66,3.71-5.06,3.33-7.15-.48-2.65-3.29-3.99-3.31-4.01-.41-.19-.59-.68-.4-1.09.19-.41.68-.59,1.09-.4.15.07,3.59,1.7,4.23,5.19.49,2.65-.78,5.54-3.77,8.61-4.12,4.23-3.99,8.38-3.99,8.42.02.36-.2.68-.53.81-.09.03-.19.05-.29.05Z"/><path class="cls-7" d="m252.31,36.62c-3.22,0-7.98-.83-10.82-5.19-.25-.38-.14-.89.24-1.14.38-.25.89-.14,1.14.24,2.6,4,7.32,4.52,10.15,4.41-1.31-1.27-2.32-3.24-3.32-5.69-1.1-2.7-2.22-4.08-3.63-4.48-.44-.12-.69-.58-.57-1.01.12-.44.57-.69,1.01-.57,1.94.54,3.39,2.22,4.71,5.44,1.59,3.89,2.86,5.59,4.52,6.08.36.11.6.44.59.82s-.28.69-.65.77c-.14.03-1.49.31-3.36.31Z"/><path class="cls-7" d="m246.91,44.36s-.02,0-.04,0c-.32-.01-.6-.21-.72-.51-2.5-6.2-7.03-7.27-7.22-7.31-.44-.1-.72-.53-.63-.98s.52-.72.97-.63c.2.04,4.47,1,7.4,6.22.14-1.45-.01-3.62-1.31-6.33-.2-.41-.02-.9.39-1.1.41-.2.9-.02,1.1.39,2.78,5.8.87,9.64.79,9.8-.14.27-.42.45-.73.45Z"/><path class="cls-7" d="m216.51,16.81c-.07,0-.13,0-.2-.03-.44-.11-.71-.56-.59-1,.14-.57.14-1.08.12-1.37-.84-.83-3.31-3.79-1.88-8.78.12-.41.53-.67.96-.58.19.04,4.5,1,6.29,5.96,1.14-.46,3.27-.95,6.6-.33.45.08.74.51.65.96-.08.45-.52.74-.96.65-4.4-.83-6.27.53-6.28.54-.22.16-.51.21-.77.12-.26-.09-.46-.3-.53-.56-.95-3.57-3.35-4.98-4.59-5.49-.83,4.21,1.69,6.37,1.8,6.47.15.12.25.29.28.48.02.11.2,1.1-.11,2.33-.09.37-.43.62-.8.62Z"/><path class="cls-7" d="m228.53,12.34c-1.26,0-2.66-.1-4.21-.31-.45-.06-.76-.48-.7-.93.06-.45.48-.77.93-.7,7.7,1.09,11.26-1,12.82-2.63-1.93.2-3.69-.52-5.4-1.21-1.5-.61-3.05-1.23-4.74-1.27-4.01-.05-6.58,3.61-6.6,3.65-.25.37-.76.48-1.14.22-.38-.25-.47-.76-.22-1.14.12-.18,3.06-4.43,8-4.37,2,.04,3.69.72,5.33,1.39,2.21.89,4.12,1.67,6.32.61.3-.14.65-.09.9.13.25.22.34.56.23.88-.09.26-2.02,5.69-11.51,5.69Z"/><path class="cls-7" d="m231.3,33.65c-.25,0-.49-.11-.65-.32-5.73-7.51-.88-15.29-.83-15.36.24-.38.75-.49,1.13-.25.38.24.49.75.25,1.13-.16.26-3.67,5.92-.26,11.96.67-1.71,2.28-4.23,6.17-6.47.2-.11,4.82-2.8,4.32-7.79,0-.28-.17-5.26-4.67-6.62-.43-.13-.68-.59-.55-1.02.13-.43.59-.68,1.02-.55,5.67,1.72,5.83,8.04,5.84,8.1.6,6-4.91,9.18-5.15,9.31-5.64,3.24-5.8,6.92-5.81,7.07,0,.35-.24.66-.57.76-.08.03-.17.04-.25.04Z"/><path class="cls-7" d="m232.22,24.48c-.13,0-.26-.03-.38-.09-.27-.14-.44-.41-.44-.71,0-.05-.16-5.24-4.51-8.88-3.34-2.8-5.55-2.05-5.64-2.01-.42.15-.89-.06-1.05-.48-.16-.42.04-.89.46-1.05.13-.05,3.14-1.19,7.29,2.28,3.39,2.84,4.53,6.43,4.9,8.48,1.19-1.26,2.78-3.71,1.68-7.16-.86-2.71-1.69-2.93-1.79-2.95-.4.12-.83-.08-.99-.47-.17-.42.02-.9.44-1.07.3-.12.81-.16,1.35.09,1.02.47,1.87,1.79,2.54,3.91,1.98,6.28-3.37,9.95-3.42,9.98-.14.09-.3.14-.45.14Zm.61-12.61s0,0,0,0c0,0,0,0,0,0Zm0,0s0,0,0,0c0,0,0,0,0,0Z"/><path class="cls-7" d="m207.43,47.19c-.24,0-.48-.1-.64-.3-1.01-1.25-1.33-2.39-.96-3.39.58-1.57,2.59-1.98,2.82-2.02.04,0,.08-.01.12-.01l11.71-.4s.02,0,.03,0c.44,0,.8.35.82.79.02.45-.34.83-.79.85l-11.64.4c-.38.08-1.32.4-1.52.97-.15.41.1,1.04.7,1.78.29.35.23.87-.12,1.16-.15.12-.33.18-.52.18Z"/><path class="cls-7" d="m270.23,100.88c-.16,0-.32-.05-.46-.14-.19-.12-.31-.32-.35-.54-.58-3.18.05-6.92.66-8.12.76-6.22,1.06-16.55-1.38-18.29-.37-.26-.45-.78-.19-1.15s.78-.45,1.15-.19c4.05,2.91,2.25,18.26,2.03,20-.02.16-.09.31-.19.43-.2.36-.89,3.24-.59,6.13,1.44-.46,4.27-1.63,4.94-3.79l-1.16-1.93c-.05-.09-.09-.19-.11-.3-.39-2.57-.3-5.8-.21-8.94.09-2.99.18-6.09-.15-8.62-.06-.45.26-.86.71-.92.45-.06.86.26.92.71.34,2.65.25,5.81.16,8.87-.09,3.13-.17,6.09.17,8.48l1.25,2.09c.11.18.14.39.1.59-.87,4.18-6.87,5.54-7.13,5.6-.06.01-.12.02-.17.02Z"/><path class="cls-7" d="m303.75,72.78c-6.55,0-16.39-.95-21.72-6.11-3.83-3.71-4.34-7.3-4.75-10.18-.45-3.15-.72-5.05-4.9-5.91-.44-.09-.73-.53-.64-.97.09-.44.53-.73.97-.64,5.31,1.1,5.74,4.1,6.19,7.29.4,2.77.84,5.92,4.27,9.23,5.56,5.39,17.01,5.78,23.02,5.58-5.13-2.62-7.98-7.68-10.76-12.61-2.14-3.8-4.35-7.72-7.57-10.35-7.92-6.45-16.95-1.79-17.05-1.74-.4.21-.9.06-1.11-.34-.21-.4-.06-.9.34-1.11.1-.05,10.1-5.21,18.85,1.92,3.46,2.82,5.75,6.88,7.97,10.82,3.36,5.97,6.54,11.61,13.49,13.17.39.09.66.44.64.84-.02.4-.33.73-.73.77-.29.03-2.91.32-6.53.32Z"/><path class="cls-7" d="m290.35,69.96c-6.03-1.63-7.13-6.62-8.29-11.9-.51-2.3-1.03-4.68-1.98-6.87-1.06-2.44-2.51-4.02-4.32-4.71-2.38-.9-4.57.09-4.59.1l-.23-.5c.1-.05,2.41-1.1,5.01-.12,1.95.74,3.51,2.42,4.63,5,.97,2.24,1.5,4.64,2.02,6.97,1.13,5.11,2.19,9.94,7.9,11.49l-.14.53Z"/><path class="cls-7" d="m309.15,71.59c-3.41,0-16.99-.74-20.65-12.22-2.43-7.64-5.95-11.18-8.48-12.81-2.73-1.76-4.89-1.72-4.93-1.72l-.02-.55c.09-.02,9.16-.11,13.95,14.91,4.04,12.69,20.71,11.83,20.88,11.82l.03.55s-.3.02-.78.02Z"/></g></svg>